<svg xmlns="http://www.w3.org/2000/svg" version="1.1" xmlns:xlink="http://www.w3.org/1999/xlink" xmlns:svgjs="http://svgjs.dev/svgjs" width="2000" height="1500" viewBox="0 0 2000 1500"><rect width="2000" height="1500" fill="#102e44"></rect><g transform="matrix(0.75,0,0,0.75,249.090909090909,282.7536437246963)"><svg viewBox="0 0 396 247" data-background-color="#102e44" preserveAspectRatio="xMidYMid meet" height="1247" width="2000" xmlns="http://www.w3.org/2000/svg" xmlns:xlink="http://www.w3.org/1999/xlink"><defs></defs><g id="tight-bounds" transform="matrix(1,0,0,1,0.2400000000000091,-0.09999999999999432)"><svg viewBox="0 0 395.52 247.2" height="247.2" width="395.52"><g><svg></svg></g><g><svg viewBox="0 0 395.52 247.2" height="247.2" width="395.52"><g transform="matrix(1,0,0,1,75.54432,99.3079029454171)"><svg viewBox="0 0 244.43135999999998 48.5841941091658" height="48.5841941091658" width="244.43135999999998"><g><svg viewBox="0 0 244.43135999999998 48.5841941091658" height="48.5841941091658" width="244.43135999999998"><g><svg viewBox="0 0 244.43136 48.58419410916581" height="48.5841941091658" width="244.43135999999998"><g><svg viewBox="0 0 244.43136 48.58419410916581" height="48.58419410916581" width="244.43136"><g><svg viewBox="0 0 244.43136 48.58419410916581" height="48.58419410916581" width="244.43136"><g><svg viewBox="0 0 244.43136 48.58419410916581" height="48.58419410916581" width="244.43136"><g transform="matrix(1,0,0,1,0,0)"><svg width="244.43136" viewBox="2.450000047683716 -36.45000076293945 242.72999572753906 48.25" height="48.58419410916581" data-palette-color="#ffffff"><path d="M9.25 0.65Q5.95 0.65 4.2-0.9 2.45-2.45 2.45-4.7L2.45-4.7Q2.45-5.65 2.95-6.35 3.45-7.05 4.45-7.05L4.45-7.05Q5.05-7.05 5.35-6.65L5.35-6.65Q5.05-5.75 5.05-5L5.05-5Q5.05-3.05 6.3-2.05 7.55-1.05 9.15-1.05L9.15-1.05Q12.1-1.05 13.18-2.9 14.25-4.75 14.25-8.45L14.25-8.45 14.25-31.1Q14.25-32.7 14.4-33.4L14.4-33.4Q13.4-33.35 12.13-33.43 10.85-33.5 10.3-33.5L10.3-33.5Q9.3-33.6 8.8-33.6L8.8-33.6Q7.75-33.7 7-33.3 6.25-32.9 6.25-31.7L6.25-31.7Q6.25-30.2 7.65-29.4L7.65-29.4Q7.2-29 6.25-29L6.25-29Q5.25-29 4.53-29.83 3.8-30.65 3.8-32L3.8-32Q3.8-33.35 4.8-34.25 5.8-35.15 7.6-35.15L7.6-35.15Q8.6-35.15 10.25-35L10.25-35 13.75-34.85Q15.05-34.85 17.45-35.1L17.45-35.1Q17.25-33.75 17.25-31.6L17.25-31.6 17.25-8.55Q17.25 0.65 9.25 0.65L9.25 0.65ZM48-2.8Q48.55-2.1 48.55-1.45L48.55-1.45Q48.55-0.6 47.87-0.1 47.2 0.4 46 0.4L46 0.4Q42.5 0.4 42.5-4.2L42.5-4.2 42.5-5.75Q41.45-2.75 39.17-1.05 36.9 0.65 34 0.65L34 0.65Q29.95 0.65 28.1-1.8 26.25-4.25 26.2-10.05L26.2-10.05 26.2-20.2Q26.2-23.45 25.7-25.15L25.7-25.15Q26.5-25.85 27.4-25.85L27.4-25.85Q28.15-25.85 28.62-25.38 29.1-24.9 29.1-24.1L29.1-24.1 29.15-10.35Q29.15-6.9 29.7-4.95 30.25-3 31.45-2.13 32.65-1.25 34.75-1.25L34.75-1.25Q36.55-1.25 38.27-2.45 40-3.65 41.15-6.33 42.3-9 42.3-13.2L42.3-13.2Q42.3-20.1 42.22-22.05 42.15-24 41.8-25.15L41.8-25.15Q42.5-25.85 43.5-25.85L43.5-25.85Q44.25-25.85 44.72-25.35 45.2-24.85 45.2-24L45.2-24 45.25-4.5Q45.25-3.1 45.57-2.55 45.9-2 46.7-2L46.7-2Q47.6-2 48-2.8L48-2.8ZM60.75 11.8Q57.25 11.8 54.92 10.23 52.59 8.65 52.59 5.7L52.59 5.7Q52.59 4.15 53.34 3.18 54.09 2.2 55.2 2.2L55.2 2.2Q56.25 2.2 56.75 2.85L56.75 2.85Q55.4 3.75 55.4 5.7L55.4 5.7Q55.4 7.95 56.92 9.08 58.45 10.2 60.84 10.2L60.84 10.2Q65.55 10.2 67.72 7.03 69.9 3.85 69.9-2.6L69.9-2.6 69.9-5.9Q68.95-2.95 66.7-1.3 64.45 0.35 61.25 0.35L61.25 0.35Q52.45 0.35 52.45-12.4L52.45-12.4Q52.45-17.9 54.82-21.88 57.2-25.85 63.55-25.85L63.55-25.85Q66.2-25.85 68.72-25.13 71.25-24.4 72.84-22.55L72.84-22.55 72.84-2.25Q72.84 11.8 60.75 11.8L60.75 11.8ZM61.9-1.55Q66.05-1.55 67.95-4.85 69.84-8.15 69.9-12.4L69.9-12.4 69.95-22.05Q69.05-23.1 67.27-23.65 65.5-24.2 63.3-24.2L63.3-24.2Q58.8-24.2 57.2-20.73 55.59-17.25 55.59-12.1L55.59-12.1Q55.59-6.6 57.15-4.08 58.7-1.55 61.9-1.55L61.9-1.55ZM90.94-25.85Q93.39-25.85 94.89-24.55 96.39-23.25 96.39-20.85L96.39-20.85Q96.39-19.4 95.64-18.4 94.89-17.4 93.89-17.3L93.89-17.3 93.69-17.3Q92.89-17.3 92.64-17.65L92.64-17.65Q93.24-18.45 93.42-19.15 93.59-19.85 93.59-20.75L93.59-20.75Q93.59-24 90.39-24L90.39-24Q87.99-24 86.27-21.18 84.54-18.35 84.54-12.2L84.54-12.2 84.54-8.7Q84.54-4.35 84.62-2.8 84.69-1.25 85.04-0.25L85.04-0.25Q84.34 0.45 83.29 0.45L83.29 0.45Q82.54 0.45 82.07-0.05 81.59-0.55 81.59-1.4L81.59-1.4 81.59-20.85Q81.59-22.2 81.24-22.8 80.89-23.4 80.14-23.4L80.14-23.4Q79.19-23.4 78.79-22.55L78.79-22.55Q78.24-23.35 78.24-23.95L78.24-23.95Q78.24-24.8 78.94-25.3 79.64-25.8 80.84-25.8L80.84-25.8Q84.34-25.8 84.24-20.9L84.24-20.9 84.24-20Q85.04-22.85 86.79-24.35 88.54-25.85 90.94-25.85L90.94-25.85ZM124.29-3.05Q124.79-2.5 124.79-1.7L124.79-1.7Q124.79-0.75 123.89-0.13 122.99 0.5 121.74 0.5L121.74 0.5Q117.84 0.5 117.84-4.85L117.84-4.85 117.84-7.6Q116.14-3.8 113.17-1.63 110.19 0.55 106.74 0.55L106.74 0.55Q103.84 0.55 102.24-1.03 100.64-2.6 100.64-5.2L100.64-5.2Q100.64-8.05 102.77-10.1 104.89-12.15 108.74-13.2L108.74-13.2Q112.04-14.05 115.54-14.05L115.54-14.05Q116.29-14.05 117.69-13.95L117.69-13.95 117.69-15.25Q117.69-19.8 115.99-22.03 114.29-24.25 110.54-24.25L110.54-24.25Q108.14-24.25 106.42-23.28 104.69-22.3 104.69-20.05L104.69-20.05Q104.69-18.95 105.29-17.93 105.89-16.9 106.99-16.55L106.99-16.55Q106.34-15.65 105.04-15.65L105.04-15.65Q103.59-15.65 102.67-16.95 101.74-18.25 101.74-19.9L101.74-19.9Q101.74-22.85 104.17-24.35 106.59-25.85 110.89-25.85L110.89-25.85Q115.89-25.85 118.29-23.2 120.69-20.55 120.69-15.1L120.69-15.1 120.69-4.55Q120.69-1.9 122.54-1.9L122.54-1.9Q122.99-1.9 123.49-2.2 123.99-2.5 124.29-3.05L124.29-3.05ZM107.84-1.6Q110.04-1.6 112.34-3.2 114.64-4.8 116.17-7.35 117.69-9.9 117.74-12.6L117.74-12.6 116.54-12.65Q114.64-12.65 112.62-12.38 110.59-12.1 109.24-11.6L109.24-11.6Q106.64-10.75 105.24-9.25 103.84-7.75 103.84-5.7L103.84-5.7Q103.84-3.95 104.82-2.78 105.79-1.6 107.84-1.6L107.84-1.6ZM131.89-31.15Q130.99-31.15 130.31-31.8 129.64-32.45 129.64-33.4L129.64-33.4Q129.64-34.3 130.31-34.98 130.99-35.65 131.89-35.65L131.89-35.65Q132.84-35.65 133.49-34.98 134.14-34.3 134.14-33.4L134.14-33.4Q134.14-32.45 133.49-31.8 132.84-31.15 131.89-31.15L131.89-31.15ZM126.84 11.7Q124.44 11.7 123.14 10.65 121.84 9.6 121.84 7.85L121.84 7.85Q121.84 7.05 122.31 6.43 122.79 5.8 123.69 5.8L123.69 5.8Q124.24 5.8 124.49 6.2L124.49 6.2Q124.19 6.8 124.19 7.65L124.19 7.65Q124.19 9 124.99 9.55 125.79 10.1 126.84 10.1L126.84 10.1Q129.04 10.1 129.81 8.25 130.59 6.4 130.59 2.8L130.59 2.8 130.64-20.2Q130.64-23.65 130.14-25.15L130.14-25.15Q130.84-25.85 131.84-25.85L131.84-25.85Q132.59-25.85 133.04-25.38 133.49-24.9 133.49-24.1L133.49-24.1 133.54 3.25Q133.54 6.85 132.09 9.28 130.64 11.7 126.84 11.7L126.84 11.7ZM156.08 0Q155.28 0 154.83-0.45 154.38-0.9 154.38-1.75L154.38-1.75 154.28-29.35Q154.28-33.45 153.88-34.8L153.88-34.8Q157.83-35.1 163.98-35.1L163.98-35.1Q170.78-35.1 174.36-30.7 177.93-26.3 177.93-17.4L177.93-17.4Q177.93-8.4 174.41-4.2 170.88 0 164.08 0L164.08 0 156.08 0ZM157.28-1.65L163.98-1.65Q169.28-1.65 171.98-5.35 174.68-9.05 174.68-17.25L174.68-17.25Q174.68-33.45 163.98-33.45L163.98-33.45 157.23-33.45 157.28-1.65ZM203.08-6.15Q203.78-5.9 203.78-5.1L203.78-5.1Q203.78-4.45 203.48-3.8L203.48-3.8Q202.58-1.65 200.26-0.5 197.93 0.65 194.83 0.65L194.83 0.65Q189.48 0.65 186.51-2.7 183.53-6.05 183.53-12.4L183.53-12.4Q183.53-18.7 186.53-22.28 189.53-25.85 195.13-25.85L195.13-25.85Q199.08-25.85 201.46-24 203.83-22.15 203.83-18.8L203.83-18.8Q203.83-15.1 200.83-13.18 197.83-11.25 192.28-11.25L192.28-11.25Q189.48-11.25 186.68-11.65L186.68-11.65Q186.93-6.3 189.31-3.95 191.68-1.6 195.43-1.6L195.43-1.6Q198.23-1.6 200.31-2.75 202.38-3.9 203.08-6.15L203.08-6.15ZM194.98-24.25Q191.23-24.25 188.98-21.4 186.73-18.55 186.68-13.15L186.68-13.15Q188.63-12.9 191.63-12.8L191.63-12.8Q200.68-12.8 200.68-19.1L200.68-19.1Q200.68-21.85 199.03-23.05 197.38-24.25 194.98-24.25L194.98-24.25ZM219.93 0.65Q214.63 0.65 211.7-2.85 208.78-6.35 208.78-12.6L208.78-12.6Q208.78-18.85 211.7-22.35 214.63-25.85 219.93-25.85L219.93-25.85Q225.18-25.85 228.13-22.35 231.08-18.85 231.08-12.6L231.08-12.6Q231.08-6.35 228.13-2.85 225.18 0.65 219.93 0.65L219.93 0.65ZM219.93-1Q223.73-1 225.8-4.03 227.88-7.05 227.88-12.6L227.88-12.6Q227.88-18.15 225.8-21.18 223.73-24.2 219.93-24.2L219.93-24.2Q216.08-24.2 214-21.18 211.93-18.15 211.93-12.6L211.93-12.6Q211.93-7.05 214-4.03 216.08-1 219.93-1L219.93-1ZM241.98 0.5Q240.03 0.5 238.9-0.8 237.78-2.1 237.78-4.45L237.78-4.45 237.78-34.7Q237.78-35.55 238.25-36 238.73-36.45 239.53-36.45L239.53-36.45Q240.53-36.45 241.23-35.75L241.23-35.75Q240.93-34.75 240.83-32.65 240.73-30.55 240.73-26L240.73-26 240.73-4.55Q240.73-1.9 242.68-1.9L242.68-1.9Q243.33-1.9 243.88-2.2 244.43-2.5 244.68-3.05L244.68-3.05Q245.18-2.5 245.18-1.7L245.18-1.7Q245.18-0.7 244.23-0.1 243.28 0.5 241.98 0.5L241.98 0.5Z" opacity="1" transform="matrix(1,0,0,1,0,0)" fill="#ffffff" class="undefined-text-0" data-fill-palette-color="primary" id="text-0"></path></svg></g></svg></g></svg></g></svg></g></svg></g></svg></g></svg></g><g><path d="M244.431 159.362A122.216 122.216 0 1 1 244.431 87.838L240.05 87.838A117.834 117.834 0 1 0 240.05 159.362L244.431 159.362" fill="#ffffff" stroke="transparent" data-fill-palette-color="tertiary"></path></g></svg></g></svg><rect width="395.52" height="247.2" fill="none" stroke="none" visibility="hidden"></rect></g></svg></g></svg>